<svg fill="none" viewBox="0 0 100 100" xmlns="http://www.w3.org/2000/svg" class="size-4">
  <path d="M50 0C22.386 0 0 22.386 0 50s22.386 50 50 50 50-22.386 50-50S77.614 0 50 0zm22.5 72.5c0 2.761-2.239 5-5 5s-5-2.239-5-5V37.5c0-1.381.559-2.632 1.464-3.536L72.5 25.428c.905-.905 2.155-1.464 3.536-1.464s2.632.559 3.536 1.464.928 2.155.928 3.536V67.5c0 2.761-2.239 5-5 5s-5-2.239-5-5V32.5L67.5 35v37.5zM32.5 62.5c-2.761 0-5-2.239-5-5s2.239-5 5-5 5 2.239 5 5-2.239 5-5 5zm0-12.5c-6.903 0-12.5 5.597-12.5 12.5S25.597 75 32.5 75 45 69.403 45 62.5 39.403 50 32.5 50z" fill="#FA243C"/>
</svg>