<svg fill="none" viewBox="0 0 100 100" xmlns="http://www.w3.org/2000/svg" class="size-4">
  <path d="M50 0C22.386 0 0 22.386 0 50s22.386 50 50 50 50-22.386 50-50S77.614 0 50 0zm20 65h-8v-6h8v6zm0-8h-8v-6h8v6zm0-8h-8v-6h8v6zm0-8h-8v-6h8v6zm-10 24h-8v-6h8v6zm0-8h-8v-6h8v6zm0-8h-8v-6h8v6zm0-8h-8v-6h8v6zm0-8h-8v-6h8v6zm-10 32h-8v-6h8v6zm0-8h-8v-6h8v6zm0-8h-8v-6h8v6zm0-8h-8v-6h8v6zm0-8h-8v-6h8v6zm0-8h-8v-6h8v6zm-10 40h-8v-6h8v6zm0-8h-8v-6h8v6zm0-8h-8v-6h8v6zm0-8h-8v-6h8v6zm0-8h-8v-6h8v6zm0-8h-8v-6h8v6zm0-8h-8v-6h8v6z" fill="#FF6600"/>
</svg>