<svg fill="none" viewBox="0 0 100 100" xmlns="http://www.w3.org/2000/svg" class="size-4">
  <path d="M50 0C22.386 0 0 22.386 0 50s22.386 50 50 50 50-22.386 50-50S77.614 0 50 0zm22.946 72.186c-.9 1.477-2.819 1.94-4.296 1.04-11.765-7.188-26.569-8.818-44.003-4.832-1.684.384-3.37-.671-3.754-2.355-.384-1.684.671-3.37 2.355-3.754 19.044-4.356 35.624-2.484 48.658 5.585 1.477.9 1.94 2.819 1.04 4.296v.02zm6.134-13.64c-1.07 1.735-3.352 2.278-5.088 1.208-13.466-8.282-33.977-10.683-49.857-5.844-2.048.625-4.218-.529-4.843-2.577-.625-2.048.529-4.218 2.577-4.843 18.134-5.532 40.646-2.856 56.003 6.668 1.735 1.07 2.278 3.352 1.208 5.088v.3zm.526-14.184C65.274 36.33 37.936 35.388 22.087 40.22c-2.432.742-4.996-.627-5.738-3.059-.742-2.432.627-4.996 3.059-5.738 18.134-5.532 47.997-4.465 66.478 6.668 1.907 1.15 2.525 3.634 1.374 5.541-1.15 1.907-3.634 2.525-5.541 1.374z" fill="#1DB954"/>
</svg>