<svg fill="none" viewBox="0 0 100 100" xmlns="http://www.w3.org/2000/svg" class="size-3.5"><path d="m99.053 38.116-.39-1.939-16.49-2.88 9.582-12.965-1.114-1.218-14.095 6.759 1.783-17.95-1.448-.832-8.58 14.516L58.663 0h-1.671l2.284 20.886-24.234-19.39-2.062.61L51.645 25.54 14.708 13.241l-1.672 1.884 32.98 18.78L.502 37.674 0 40.5l47.298 5.152L7.855 78.283l1.672 2.271 46.963-25.54L47.188 100h2.841l17.994-42.327 10.975 33.13 1.95-1.496-4.513-33.684 17.104 19.39 1.114-1.772L81.56 49.197l18.273 6.758.167-2.05-16.379-12.077 15.432-3.712Z" fill="#FFBC0D"></path></svg>